<?xml version="1.0" standalone="no"?>
<!DOCTYPE svg PUBLIC "-//W3C//DTD SVG 20010904//EN"
 "http://www.w3.org/TR/2001/REC-SVG-20010904/DTD/svg10.dtd">
<svg version="1.0" xmlns="http://www.w3.org/2000/svg"
 width="512.000000pt" height="512.000000pt" viewBox="0 0 512.000000 512.000000"
 preserveAspectRatio="xMidYMid meet">

<g transform="translate(0.000000,512.000000) scale(0.100000,-0.100000)"
 stroke="none">
<path d="M4367 4193 c-2 -4 -8 -41 -11 -82 -12 -124 -34 -144 -113 -101 -20
10 -40 17 -45 14 -5 -3 -8 -22 -7 -43 4 -57 -5 -64 -70 -57 -242 29 -274 28
-418 -10 -32 -9 -67 -18 -78 -21 -11 -3 -42 -9 -70 -13 -57 -10 -291 -66 -303
-74 -5 -3 -55 -12 -113 -21 -57 -9 -115 -18 -129 -21 -102 -18 -291 -26 -640
-26 -377 -1 -1074 15 -1165 27 -100 12 -311 25 -428 25 -106 0 -134 -3 -165
-19 -55 -28 -117 -100 -136 -158 -42 -128 -48 -204 -36 -538 6 -169 7 -357 2
-430 -4 -71 -4 -191 1 -265 5 -74 6 -175 3 -225 -3 -63 0 -102 10 -130 10 -29
14 -91 14 -227 0 -176 -9 -265 -33 -315 -6 -13 -7 -41 -2 -70 4 -26 10 -70 14
-98 8 -61 16 -75 44 -75 12 0 30 -6 39 -14 9 -7 36 -11 60 -10 24 2 55 3 69 3
20 1 30 9 39 31 13 32 29 37 59 18 14 -9 26 -8 51 2 31 13 32 16 27 56 -3 30
-14 55 -36 79 -17 20 -31 44 -31 54 0 10 -3 21 -7 25 -11 11 -3 163 12 237 23
111 102 246 224 381 75 83 125 152 141 192 16 42 36 42 118 -1 68 -36 178 -82
402 -167 36 -13 83 -28 105 -32 54 -9 94 -30 134 -71 29 -29 35 -32 50 -21 58
47 67 48 333 48 222 0 321 4 618 25 36 2 97 9 135 14 39 6 82 10 97 11 35 0
35 -1 79 -270 11 -69 22 -133 25 -142 3 -9 9 -77 13 -150 10 -159 31 -223 95
-293 l43 -46 78 6 c43 3 83 9 88 12 14 9 0 62 -37 133 -46 88 -60 155 -60 285
0 100 2 115 27 166 15 30 29 69 31 85 19 117 29 161 39 175 7 8 38 27 69 42
86 39 120 69 190 169 77 109 70 98 142 233 67 124 182 304 245 382 50 64 90
85 212 113 52 12 119 36 150 52 35 18 71 29 95 29 21 0 53 0 70 -1 33 0 121
41 178 85 28 22 35 34 38 73 3 26 2 54 -1 63 -3 9 -42 55 -86 101 -113 118
-144 160 -167 225 -27 78 -41 102 -84 143 -38 37 -65 86 -57 105 2 7 -17 31
-42 54 -37 34 -45 48 -45 77 0 20 -6 57 -14 83 -8 25 -18 60 -23 76 -8 29 -45
47 -56 28z"/>
</g>
</svg>
